# File created by Blade
# Date/Time:  Wed Jan 21 17:21:31 2015
# Frame Rate: 120.000 fps
#------------------------------------------------------
:FULLY-SPECIFIED
:DEGREES
1164
root 19.573042 18.239541 -1.657968 -175.556604 3.885875 -199.380106
Spine 71.151463 10.663141 7.488994
Head -28.717857 -15.901004 6.175136
LeftShoulder 0.249457 -22.650076 2.691112
LeftArm -2.712017 37.515819 -56.088845
LeftForeArm 39.554190 -0.000000 130.135388
LeftHand 2.267460 -0.000000 28.846181
LeftHandThumb1 -26.253704 0.000000 33.147579
RightShoulder 13.864848 6.614381 -7.491398
RightArm 31.604539 22.821886 47.384654
RightForeArm -13.809739 -0.000000 14.047745
RightHand -10.266961 -0.000000 -27.008504
RightHandThumb1 -24.326973 -0.000000 -32.862282
LeftUpLeg -95.690224 0.286539 -21.918151
LeftLeg 97.244660 -0.000000 -0.000000
LeftFoot -30.135448 30.066640 -9.891169
LeftToeBase 17.298093 -0.000000 -0.000000
RightUpLeg -30.086448 -8.031961 0.575428
RightLeg 113.258515 -0.000000 -0.000000
RightFoot 44.292295 -21.922065 6.206279
RightToeBase 41.688976 -0.000000 -0.000000
1165
root 19.556906 18.238543 -1.672421 -175.487402 3.747558 -199.244544
Spine 71.239214 10.623378 7.486881
Head -28.753021 -16.045603 6.247568
LeftShoulder 0.224536 -22.601648 2.637301
LeftArm -1.812127 37.734089 -55.300848
LeftForeArm 40.138540 -0.000000 130.280883
LeftHand 2.434005 0.000000 29.131337
LeftHandThumb1 -26.253704 0.000000 33.147579
RightShoulder 13.986465 6.635612 -7.559596
RightArm 31.481724 23.007986 47.383680
RightForeArm -13.652042 -0.000000 14.075413
RightHand -10.299109 -0.000000 -27.073287
RightHandThumb1 -24.326973 -0.000000 -32.862282
LeftUpLeg -95.551586 0.121242 -21.597878
LeftLeg 96.785799 -0.000000 -0.000000
LeftFoot -30.034161 30.121674 -9.858635
LeftToeBase 17.429970 -0.000000 -0.000000
RightUpLeg -30.071824 -8.162281 0.654366
RightLeg 113.205870 -0.000000 -0.000000
RightFoot 44.373624 -21.942973 6.239095
RightToeBase 41.720791 -0.000000 -0.000000
1166
root 19.548665 18.233757 -1.700776 -175.472049 3.755691 -199.039650
Spine 71.428702 10.775917 7.602875
Head -28.807718 -16.215908 6.379696
LeftShoulder 0.208800 -22.612507 2.583099
LeftArm -0.895208 37.915671 -54.506914
LeftForeArm 41.000299 -0.000000 130.482827
LeftHand 2.594132 -0.000000 28.533081
LeftHandThumb1 -26.253704 0.000000 33.147579
RightShoulder 14.021151 6.772356 -7.533245
RightArm 31.266123 23.037776 47.254728
RightForeArm -13.554282 -0.000000 14.085299
RightHand -10.505867 0.000000 -26.533909
RightHandThumb1 -24.326973 -0.000000 -32.862282
LeftUpLeg -95.473945 0.127527 -21.250735
LeftLeg 96.468684 -0.000000 -0.000000
LeftFoot -29.821381 30.158366 -9.834165
LeftToeBase 17.399534 -0.000000 -0.000000
RightUpLeg -29.981746 -8.130396 0.808812
RightLeg 113.133469 -0.000000 -0.000000
RightFoot 44.442655 -22.011533 6.302478
RightToeBase 41.756746 -0.000000 -0.000000
1167
root 19.528715 18.236785 -1.719941 -175.373331 3.649335 -198.931236
Spine 71.509362 10.773324 7.537247
Head -28.876352 -16.253758 6.417569
LeftShoulder 0.090887 -22.735950 2.544257
LeftArm -0.050477 38.264213 -53.784464
LeftForeArm 41.895980 -0.000000 130.669920
LeftHand 2.322692 0.000000 28.504831
LeftHandThumb1 -26.253704 0.000000 33.147579
RightShoulder 14.126047 6.631707 -7.617350
RightArm 31.328189 23.272842 47.280912
RightForeArm -13.605037 -0.000000 14.033613
RightHand -10.605712 -0.000000 -26.307997
RightHandThumb1 -24.326973 -0.000000 -32.862282
LeftUpLeg -95.359616 -0.023019 -21.012435
LeftLeg 96.010979 -0.000000 -0.000000
LeftFoot -29.722037 30.150891 -9.856603
LeftToeBase 17.458695 -0.000000 -0.000000
RightUpLeg -29.992479 -8.234253 0.843219
RightLeg 113.066199 -0.000000 -0.000000
RightFoot 44.567588 -22.122685 6.313180
RightToeBase 41.733511 -0.000000 -0.000000
